# xmcd CD database file
#
# Track frame offsets:
#	150
#	26662
#	44774
#	61536
#	75223
#	93035
#	109722
#	122734
#	135852
#	150739
#	170351
#	190038
#	207100
#	224558
#
# Disc length: 3231 seconds
#
# Revision: 2
# Processed by: cddbd v1.5.2PL0 Copyright (c) Steve Scherf et al.
# Submitted via: jetAudio 7
#
DISCID=ab0c9d0e
DTITLE=Various Artist - Hitz 2009 Vol. 5
DYEAR=2009
DGENRE=Country
TTITLE0=Brad Paisley - Welcome To The Future
TTITLE1=Sugarland - Joey
TTITLE2=Trace Adkins - All I Ask For Anymore
TTITLE3=Craig Morgan - Bonfire
TTITLE4=Jason Michael Carroll - Hurry Home
TTITLE5=Lost Trailers - All This Love
TTITLE6=Easton Corbin - A Little More Country Than That
TTITLE7=Holly Williams - Mama
TTITLE8=Sara Evans - Feel Just Like A Love Song
TTITLE9=Zac Brown Band - Toes
TTITLE10=Martina McBride - I Just Call You Mine
TTITLE11=Montgomery Gentry - Long Line Of Losers
TTITLE12=Gary Allan - Today
TTITLE13=Eli Young Band - Radio Waves
EXTD=
EXTT0=
EXTT1=
EXTT2=
EXTT3=
EXTT4=
EXTT5=
EXTT6=
EXTT7=
EXTT8=
EXTT9=
EXTT10=
EXTT11=
EXTT12=
EXTT13=
PLAYORDER=
